<?xml version="1.0" encoding="UTF-8"?>
<!DOCTYPE svg PUBLIC "-//W3C//DTD SVG 1.1//EN" "http://www.w3.org/Graphics/SVG/1.1/DTD/svg11.dtd">
<svg xmlns="http://www.w3.org/2000/svg" version="1.1" width="593px" height="421px" style="shape-rendering:geometricPrecision; text-rendering:geometricPrecision; image-rendering:optimizeQuality; fill-rule:evenodd; clip-rule:evenodd" xmlns:xlink="http://www.w3.org/1999/xlink">
<g><path style="opacity:0.275" fill="#a6a6a6" d="M 212.5,215.5 C 212.5,198.5 212.5,181.5 212.5,164.5C 206.833,164.5 201.167,164.5 195.5,164.5C 195.5,194.833 195.5,225.167 195.5,255.5C 194.502,225.005 194.169,194.338 194.5,163.5C 200.833,163.5 207.167,163.5 213.5,163.5C 213.83,181.008 213.497,198.341 212.5,215.5 Z"/></g>
<g><path style="opacity:1" fill="#0c0c0c" d="M 212.5,215.5 C 212.351,216.552 212.517,217.552 213,218.5C 215.811,213.866 219.311,209.866 223.5,206.5C 225.587,205.415 226.92,203.749 227.5,201.5C 230.862,197.808 234.195,194.141 237.5,190.5C 244.354,190.176 251.021,190.509 257.5,191.5C 249.874,200.296 242.04,208.963 234,217.5C 234.483,219.537 235.316,221.537 236.5,223.5C 237.08,225.749 238.413,227.415 240.5,228.5C 245.896,234.291 250.563,240.624 254.5,247.5C 254.427,249.027 255.094,250.027 256.5,250.5C 257.5,250.833 258.167,251.5 258.5,252.5C 258.414,253.496 258.748,254.329 259.5,255C 252.842,255.5 246.175,255.666 239.5,255.5C 233.418,247.017 227.085,238.684 220.5,230.5C 218.063,231.803 215.896,233.47 214,235.5C 213.5,242.492 213.334,249.492 213.5,256.5C 207.31,256.823 201.31,256.49 195.5,255.5C 195.5,225.167 195.5,194.833 195.5,164.5C 201.167,164.5 206.833,164.5 212.5,164.5C 212.5,181.5 212.5,198.5 212.5,215.5 Z"/></g>
<g><path style="opacity:0.876" fill="#3a359b" d="M 331.5,175.5 C 331.5,173.833 331.5,172.167 331.5,170.5C 312.167,170.5 292.833,170.5 273.5,170.5C 273.737,171.791 273.404,172.791 272.5,173.5C 272.5,172.167 272.5,170.833 272.5,169.5C 292.5,169.5 312.5,169.5 332.5,169.5C 332.795,171.735 332.461,173.735 331.5,175.5 Z"/></g>
<g><path style="opacity:1" fill="#0f0f0f" d="M 11.5,169.5 C 19.8333,169.5 28.1667,169.5 36.5,169.5C 42.6883,190.918 49.1883,212.251 56,233.5C 63.3953,212.648 70.3953,191.648 77,170.5C 85.4149,169.517 93.9149,169.183 102.5,169.5C 102.5,198.5 102.5,227.5 102.5,256.5C 96.5746,256.808 90.7412,256.475 85,255.5C 84.6215,234.493 84.6215,213.493 85,192.5C 78.4168,213.917 71.2502,235.084 63.5,256C 58.1667,256.667 52.8333,256.667 47.5,256C 39.9939,234.823 33.3272,213.323 27.5,191.5C 27.5386,190.244 27.0386,189.244 26,188.5C 25.2109,190.712 25.3775,192.712 26.5,194.5C 26.5,196.5 26.5,198.5 26.5,200.5C 26.5,218.833 26.5,237.167 26.5,255.5C 21.5,255.5 16.5,255.5 11.5,255.5C 11.5,226.833 11.5,198.167 11.5,169.5 Z"/></g>
<g><path style="opacity:1" fill="#170a84" d="M 331.5,175.5 C 331.324,178.727 330.657,181.727 329.5,184.5C 322.087,183.872 315.087,184.539 308.5,186.5C 304.373,209.81 299.373,232.81 293.5,255.5C 287.833,255.5 282.167,255.5 276.5,255.5C 276.5,254.5 276.5,253.5 276.5,252.5C 280.916,230.083 285.583,207.75 290.5,185.5C 283.833,184.833 277.167,184.167 270.5,183.5C 270.549,179.922 271.215,176.589 272.5,173.5C 273.404,172.791 273.737,171.791 273.5,170.5C 292.833,170.5 312.167,170.5 331.5,170.5C 331.5,172.167 331.5,173.833 331.5,175.5 Z"/></g>
<g><path style="opacity:0.422" fill="#9b9bcd" d="M 270.5,183.5 C 277.167,184.167 283.833,184.833 290.5,185.5C 283.468,185.83 276.468,185.497 269.5,184.5C 269.624,183.893 269.957,183.56 270.5,183.5 Z"/></g>
<g><path style="opacity:0.419" fill="#9898cb" d="M 329.5,184.5 C 322.6,185.199 315.6,185.866 308.5,186.5C 315.087,184.539 322.087,183.872 329.5,184.5 Z"/></g>
<g><path style="opacity:1" fill="#141414" d="M 161.5,248.5 C 160.833,245.833 160.167,245.833 159.5,248.5C 154.048,254.772 147.048,257.772 138.5,257.5C 125.17,256.837 118.17,249.837 117.5,236.5C 117.421,229.522 120.088,224.022 125.5,220C 135.985,215.335 146.985,213.501 158.5,214.5C 158.49,204.472 153.49,200.638 143.5,203C 139.398,203.858 135.398,205.025 131.5,206.5C 128.501,203.847 126.501,200.514 125.5,196.5C 125.557,195.391 125.89,194.391 126.5,193.5C 130.013,191.105 134.013,189.605 138.5,189C 145.5,188.333 152.5,188.333 159.5,189C 169.791,190.957 175.624,197.124 177,207.5C 177.667,223.5 177.667,239.5 177,255.5C 172.921,256.629 168.755,256.796 164.5,256C 163.009,253.692 162.009,251.192 161.5,248.5 Z M 151.5,225.5 C 153.833,225.5 156.167,225.5 158.5,225.5C 158.5,228.167 158.5,230.833 158.5,233.5C 156.443,240.049 151.943,243.382 145,243.5C 137.549,241.83 135.549,237.497 139,230.5C 142.548,227.415 146.715,225.749 151.5,225.5 Z"/></g>
<g><path style="opacity:0.68" fill="#636363" d="M 237.5,190.5 C 244.655,189.345 251.988,189.178 259.5,190C 258.956,190.717 258.289,191.217 257.5,191.5C 251.021,190.509 244.354,190.176 237.5,190.5 Z"/></g>
<g><path style="opacity:1" fill="#221287" d="M 358.5,188.5 C 363.844,188.334 369.177,188.501 374.5,189C 388.448,194.91 391.948,204.743 385,218.5C 379.361,224.236 372.528,227.736 364.5,229C 358.851,229.757 353.184,230.257 347.5,230.5C 347.192,236.067 349.525,239.9 354.5,242C 358.5,242.667 362.5,242.667 366.5,242C 370.559,240.924 374.559,239.757 378.5,238.5C 378.666,243.179 378.499,247.845 378,252.5C 364.865,258.728 351.698,258.894 338.5,253C 331.704,247.293 328.371,239.959 328.5,231C 328.849,217.272 333.849,205.606 343.5,196C 348.045,192.394 353.045,189.894 358.5,188.5 Z M 360.5,202.5 C 368.91,200.734 371.743,203.734 369,211.5C 367.048,213.894 364.548,215.394 361.5,216C 357.527,216.998 353.527,217.331 349.5,217C 351.498,210.843 355.165,206.01 360.5,202.5 Z"/></g>
<g><path style="opacity:1" fill="#221287" d="M 423.5,188.5 C 431.668,187.95 439.668,188.783 447.5,191C 449.18,191.347 450.18,192.347 450.5,194C 449.235,198.698 447.068,202.865 444,206.5C 429.308,200.179 419.974,204.846 416,220.5C 412.255,241.562 420.088,247.229 439.5,237.5C 440.495,242.792 440.828,248.125 440.5,253.5C 428.4,258.879 416.4,258.712 404.5,253C 398.503,247.519 395.503,240.686 395.5,232.5C 395.758,218.548 400.424,206.382 409.5,196C 414.126,193.155 418.793,190.655 423.5,188.5 Z"/></g>
<g><path style="opacity:0.69" fill="#6b68b4" d="M 478.5,191.5 C 473.934,190.203 469.267,190.203 464.5,191.5C 466.571,190.191 469.071,189.525 472,189.5C 474.5,189.833 477,190.167 479.5,190.5C 479.376,191.107 479.043,191.44 478.5,191.5 Z"/></g>
<g><path style="opacity:1" fill="#1e0f86" d="M 506.5,255.5 C 500.833,255.5 495.167,255.5 489.5,255.5C 489.5,254.5 489.5,253.5 489.5,252.5C 491.971,238.646 494.637,224.813 497.5,211C 496.616,204.056 492.949,202.056 486.5,205C 482.896,207.708 480.396,211.208 479,215.5C 475.35,228.765 472.017,242.098 469,255.5C 463.259,256.475 457.425,256.808 451.5,256.5C 455.197,234.683 459.53,213.016 464.5,191.5C 469.267,190.203 473.934,190.203 478.5,191.5C 478.5,192.5 478.5,193.5 478.5,194.5C 477.371,196.628 477.204,198.961 478,201.5C 478.717,200.956 479.217,200.289 479.5,199.5C 479.5,198.833 479.833,198.5 480.5,198.5C 481.906,198.027 482.573,197.027 482.5,195.5C 490.333,188.03 499.333,186.53 509.5,191C 511.956,193.408 513.789,196.241 515,199.5C 515.667,205.167 515.667,210.833 515,216.5C 512.59,229.73 509.756,242.73 506.5,255.5 Z"/></g>
<g><path style="opacity:1" fill="#1f1086" d="M 528.5,217.5 C 529.924,215.485 530.59,213.152 530.5,210.5C 535.81,196.203 546.143,188.869 561.5,188.5C 578.222,189.557 586.888,198.557 587.5,215.5C 587.494,231.008 581.494,243.508 569.5,253C 555.205,260.415 542.372,258.582 531,247.5C 526.075,237.74 525.242,227.74 528.5,217.5 Z M 558.5,203.5 C 566.154,203.901 569.488,208.068 568.5,216C 569.022,226.333 565.356,234.667 557.5,241C 552.269,242.724 548.435,241.224 546,236.5C 544.638,226.945 546.305,217.945 551,209.5C 553.134,206.847 555.634,204.847 558.5,203.5 Z"/></g>
<g><path style="opacity:0.698" fill="#6f6f6f" d="M 27.5,191.5 C 26.596,192.209 26.2627,193.209 26.5,194.5C 25.3775,192.712 25.2109,190.712 26,188.5C 27.0386,189.244 27.5386,190.244 27.5,191.5 Z"/></g>
<g><path style="opacity:0.482" fill="#9d9d9d" d="M 126.5,193.5 C 125.89,194.391 125.557,195.391 125.5,196.5C 124.115,195.053 124.448,194.053 126.5,193.5 Z"/></g>
<g><path style="opacity:0.808" fill="#8b81c2" d="M 482.5,195.5 C 482.573,197.027 481.906,198.027 480.5,198.5C 480.427,196.973 481.094,195.973 482.5,195.5 Z"/></g>
<g><path style="opacity:0.075" fill="#bcbbdd" d="M 478.5,194.5 C 478.216,196.415 478.549,198.081 479.5,199.5C 479.217,200.289 478.717,200.956 478,201.5C 477.204,198.961 477.371,196.628 478.5,194.5 Z"/></g>
<g><path style="opacity:0.682" fill="#878787" d="M 227.5,201.5 C 226.92,203.749 225.587,205.415 223.5,206.5C 224.08,204.251 225.413,202.585 227.5,201.5 Z"/></g>
<g><path style="opacity:0.988" fill="#7769b6" d="M 530.5,210.5 C 530.59,213.152 529.924,215.485 528.5,217.5C 528.41,214.848 529.076,212.515 530.5,210.5 Z"/></g>
<g><path style="opacity:0.929" fill="#767676" d="M 236.5,223.5 C 238.587,224.585 239.92,226.251 240.5,228.5C 238.413,227.415 237.08,225.749 236.5,223.5 Z"/></g>
<g><path style="opacity:0.504" fill="#656565" d="M 151.5,225.5 C 153.948,224.527 156.615,224.194 159.5,224.5C 159.81,227.713 159.477,230.713 158.5,233.5C 158.5,230.833 158.5,228.167 158.5,225.5C 156.167,225.5 153.833,225.5 151.5,225.5 Z"/></g>
<g><path style="opacity:0.247" fill="#acacac" d="M 161.5,248.5 C 160.833,248.5 160.167,248.5 159.5,248.5C 160.167,245.833 160.833,245.833 161.5,248.5 Z"/></g>
<g><path style="opacity:0.522" fill="#919191" d="M 254.5,247.5 C 255.906,247.973 256.573,248.973 256.5,250.5C 255.094,250.027 254.427,249.027 254.5,247.5 Z"/></g>
<g><path style="opacity:0.071" fill="#aeaeae" d="M 11.5,169.5 C 11.5,198.167 11.5,226.833 11.5,255.5C 16.5,255.5 21.5,255.5 26.5,255.5C 26.5,237.167 26.5,218.833 26.5,200.5C 27.4969,218.993 27.8302,237.659 27.5,256.5C 21.8333,256.5 16.1667,256.5 10.5,256.5C 10.1686,227.329 10.502,198.329 11.5,169.5 Z"/></g>
<g><path style="opacity:0.069" fill="#dbdbdb" d="M 258.5,252.5 C 260.104,253.287 260.771,254.62 260.5,256.5C 253.313,256.825 246.313,256.491 239.5,255.5C 246.175,255.666 252.842,255.5 259.5,255C 258.748,254.329 258.414,253.496 258.5,252.5 Z"/></g>
<g><path style="opacity:0.05" fill="#e2e2f0" d="M 276.5,252.5 C 276.5,253.5 276.5,254.5 276.5,255.5C 282.167,255.5 287.833,255.5 293.5,255.5C 287.69,256.49 281.69,256.823 275.5,256.5C 275.232,254.901 275.566,253.568 276.5,252.5 Z"/></g>
<g><path style="opacity:0.044" fill="#e3e3f1" d="M 489.5,252.5 C 489.5,253.5 489.5,254.5 489.5,255.5C 495.167,255.5 500.833,255.5 506.5,255.5C 500.69,256.49 494.69,256.823 488.5,256.5C 488.232,254.901 488.566,253.568 489.5,252.5 Z"/></g>
</svg>
