<?xml version="1.0" encoding="UTF-8"?>
<!DOCTYPE svg PUBLIC "-//W3C//DTD SVG 1.1//EN" "http://www.w3.org/Graphics/SVG/1.1/DTD/svg11.dtd">
<svg xmlns="http://www.w3.org/2000/svg" version="1.1" width="593px" height="421px" style="shape-rendering:geometricPrecision; text-rendering:geometricPrecision; image-rendering:optimizeQuality; fill-rule:evenodd; clip-rule:evenodd" xmlns:xlink="http://www.w3.org/1999/xlink">
<g><path style="opacity:0.262" fill="#b7e1e9" d="M 213.5,164.5 C 207.5,164.5 201.5,164.5 195.5,164.5C 195.5,194.833 195.5,225.167 195.5,255.5C 194.502,225.005 194.169,194.338 194.5,163.5C 201.022,163.177 207.355,163.51 213.5,164.5 Z"/></g>
<g><path style="opacity:1" fill="#1f9bb5" d="M 213.5,164.5 C 213.806,182.214 213.473,199.88 212.5,217.5C 213.301,219.793 213.968,219.46 214.5,216.5C 221.452,207.214 229.119,198.547 237.5,190.5C 244.354,190.176 251.021,190.509 257.5,191.5C 249.908,200.324 242.075,208.99 234,217.5C 235.141,220.198 236.641,222.865 238.5,225.5C 238.427,227.027 239.094,228.027 240.5,228.5C 246.853,236.193 252.853,244.193 258.5,252.5C 258.414,253.496 258.748,254.329 259.5,255C 252.842,255.5 246.175,255.666 239.5,255.5C 233.418,247.017 227.085,238.684 220.5,230.5C 218.063,231.803 215.896,233.47 214,235.5C 213.5,242.492 213.334,249.492 213.5,256.5C 207.31,256.823 201.31,256.49 195.5,255.5C 195.5,225.167 195.5,194.833 195.5,164.5C 201.5,164.5 207.5,164.5 213.5,164.5 Z"/></g>
<g><path style="opacity:0.816" fill="#88e8ec" d="M 331.5,175.5 C 331.5,173.833 331.5,172.167 331.5,170.5C 312.167,170.5 292.833,170.5 273.5,170.5C 273.737,171.791 273.404,172.791 272.5,173.5C 272.5,172.167 272.5,170.833 272.5,169.5C 291.701,169.815 310.867,169.482 330,168.5C 331.225,168.862 332.391,169.362 333.5,170C 332.891,171.948 332.224,173.782 331.5,175.5 Z"/></g>
<g><path style="opacity:1" fill="#279db6" d="M 10.5,169.5 C 19.1922,169.169 27.8589,169.502 36.5,170.5C 42.897,191.525 49.397,212.525 56,233.5C 63.3916,212.658 70.3916,191.658 77,170.5C 85.4213,169.351 93.9213,169.184 102.5,170C 102.517,198.625 102.517,227.459 102.5,256.5C 96.5746,256.808 90.7412,256.475 85,255.5C 84.6003,234.492 84.6003,213.492 85,192.5C 78.4204,213.906 71.2538,235.073 63.5,256C 58.1667,256.667 52.8333,256.667 47.5,256C 47,255.5 46.5,255 46,254.5C 39.9745,233.729 33.6412,213.063 27,192.5C 27.4041,213.811 27.5708,235.144 27.5,256.5C 21.8333,256.5 16.1667,256.5 10.5,256.5C 10.5,227.5 10.5,198.5 10.5,169.5 Z"/></g>
<g><path style="opacity:0.998" fill="#65e2e7" d="M 331.5,175.5 C 331.58,178.781 330.913,181.781 329.5,184.5C 322.087,183.872 315.087,184.539 308.5,186.5C 304.628,209.87 299.628,232.87 293.5,255.5C 287.833,255.5 282.167,255.5 276.5,255.5C 276.5,254.5 276.5,253.5 276.5,252.5C 280.454,231.393 284.788,210.393 289.5,189.5C 290.451,188.081 290.784,186.415 290.5,184.5C 283.416,185.126 276.75,184.459 270.5,182.5C 270.42,179.219 271.087,176.219 272.5,173.5C 273.404,172.791 273.737,171.791 273.5,170.5C 292.833,170.5 312.167,170.5 331.5,170.5C 331.5,172.167 331.5,173.833 331.5,175.5 Z"/></g>
<g><path style="opacity:0.393" fill="#c4f3f6" d="M 270.5,182.5 C 276.75,184.459 283.416,185.126 290.5,184.5C 290.784,186.415 290.451,188.081 289.5,189.5C 289.5,188.167 289.5,186.833 289.5,185.5C 282.833,185.5 276.167,185.5 269.5,185.5C 269.263,184.209 269.596,183.209 270.5,182.5 Z"/></g>
<g><path style="opacity:0.412" fill="#bdf2f5" d="M 329.5,184.5 C 322.6,185.199 315.6,185.866 308.5,186.5C 315.087,184.539 322.087,183.872 329.5,184.5 Z"/></g>
<g><path style="opacity:1" fill="#299db6" d="M 130.5,191.5 C 133.152,191.59 135.485,190.924 137.5,189.5C 144.754,188.37 152.087,188.204 159.5,189C 169.791,190.957 175.624,197.124 177,207.5C 177.667,223.5 177.667,239.5 177,255.5C 172.921,256.629 168.755,256.796 164.5,256C 163.259,253.437 161.926,250.937 160.5,248.5C 150.857,257.262 139.857,259.429 127.5,255C 121.08,250.625 117.746,244.459 117.5,236.5C 117.736,231.119 119.403,226.286 122.5,222C 126.453,219.19 130.787,217.19 135.5,216C 143.119,214.795 150.786,214.295 158.5,214.5C 158.49,204.472 153.49,200.638 143.5,203C 139.398,203.858 135.398,205.025 131.5,206.5C 128.311,203.306 125.977,199.473 124.5,195C 126.034,193.065 128.034,191.899 130.5,191.5 Z M 150.5,225.5 C 153.167,225.5 155.833,225.5 158.5,225.5C 158.5,228.167 158.5,230.833 158.5,233.5C 154.775,242.314 148.442,244.981 139.5,241.5C 136.477,236.497 137.143,231.997 141.5,228C 144.52,227.099 147.52,226.266 150.5,225.5 Z"/></g>
<g><path style="opacity:0.704" fill="#67c0d0" d="M 237.5,190.5 C 244.655,189.345 251.988,189.178 259.5,190C 258.956,190.717 258.289,191.217 257.5,191.5C 251.021,190.509 244.354,190.176 237.5,190.5 Z"/></g>
<g><path style="opacity:0.998" fill="#6ae3e7" d="M 357.5,188.5 C 363.176,188.334 368.843,188.501 374.5,189C 388.675,194.852 392.175,204.685 385,218.5C 379.361,224.236 372.528,227.736 364.5,229C 358.865,229.904 353.198,230.404 347.5,230.5C 347.2,236.088 349.534,239.921 354.5,242C 358.5,242.667 362.5,242.667 366.5,242C 370.559,240.924 374.559,239.757 378.5,238.5C 378.666,243.179 378.499,247.845 378,252.5C 364.874,258.832 351.708,258.999 338.5,253C 331.596,247.132 328.262,239.632 328.5,230.5C 328.92,209.8 338.587,195.8 357.5,188.5 Z M 360.5,202.5 C 368.91,200.734 371.743,203.734 369,211.5C 367.048,213.894 364.548,215.394 361.5,216C 357.83,216.548 354.163,217.048 350.5,217.5C 350.46,214.575 351.293,211.909 353,209.5C 355.396,206.933 357.896,204.6 360.5,202.5 Z"/></g>
<g><path style="opacity:0.999" fill="#6ce3e7" d="M 423.5,188.5 C 431.668,187.95 439.668,188.783 447.5,191C 449.18,191.347 450.18,192.347 450.5,194C 449.024,198.098 447.358,202.098 445.5,206C 429.689,199.657 419.855,204.823 416,221.5C 415.097,227.281 415.43,232.947 417,238.5C 419.219,240.995 422.052,241.995 425.5,241.5C 430.713,240.872 435.713,239.705 440.5,238C 441.812,242.803 441.812,247.636 440.5,252.5C 428.544,258.845 416.544,259.012 404.5,253C 398.403,247.388 395.403,240.388 395.5,232C 396.01,220.138 399.51,209.304 406,199.5C 411.217,194.653 417.05,190.986 423.5,188.5 Z"/></g>
<g><path style="opacity:0.998" fill="#6ae3e7" d="M 506.5,255.5 C 500.833,255.5 495.167,255.5 489.5,255.5C 489.5,254.5 489.5,253.5 489.5,252.5C 491.765,238.603 494.432,224.77 497.5,211C 496.616,204.056 492.949,202.056 486.5,205C 480.922,210.712 477.422,217.545 476,225.5C 473.767,235.834 471.6,246.167 469.5,256.5C 463.5,256.5 457.5,256.5 451.5,256.5C 455.355,234.08 459.688,211.747 464.5,189.5C 469.5,189.5 474.5,189.5 479.5,189.5C 479.784,191.415 479.451,193.081 478.5,194.5C 477.371,196.628 477.204,198.961 478,201.5C 478.717,200.956 479.217,200.289 479.5,199.5C 486.172,189.108 495.506,185.941 507.5,190C 513.714,194.261 516.714,200.261 516.5,208C 513.974,224.136 510.641,239.97 506.5,255.5 Z"/></g>
<g><path style="opacity:0.999" fill="#69e2e7" d="M 553.5,188.5 C 574.624,185.805 585.957,194.972 587.5,216C 587.331,230.334 581.998,242.334 571.5,252C 558.231,259.765 545.397,259.265 533,250.5C 524.353,234.472 524.687,218.472 534,202.5C 539.034,195.609 545.534,190.943 553.5,188.5 Z M 558.5,203.5 C 566.185,203.989 569.518,208.156 568.5,216C 569.022,226.333 565.356,234.667 557.5,241C 552.269,242.724 548.435,241.224 546,236.5C 544.838,226.978 546.504,217.978 551,209.5C 553.134,206.847 555.634,204.847 558.5,203.5 Z"/></g>
<g><path style="opacity:0.984" fill="#7cc4d3" d="M 137.5,189.5 C 135.485,190.924 133.152,191.59 130.5,191.5C 132.515,190.076 134.848,189.41 137.5,189.5 Z"/></g>
<g><path style="opacity:0.137" fill="#d4f7f8" d="M 478.5,194.5 C 478.216,196.415 478.549,198.081 479.5,199.5C 479.217,200.289 478.717,200.956 478,201.5C 477.204,198.961 477.371,196.628 478.5,194.5 Z"/></g>
<g><path style="opacity:0.424" fill="#b8e0e8" d="M 214.5,216.5 C 213.968,219.46 213.301,219.793 212.5,217.5C 213.167,217.167 213.833,216.833 214.5,216.5 Z"/></g>
<g><path style="opacity:0.516" fill="#66bfd0" d="M 150.5,225.5 C 153.287,224.523 156.287,224.19 159.5,224.5C 159.81,227.713 159.477,230.713 158.5,233.5C 158.5,230.833 158.5,228.167 158.5,225.5C 155.833,225.5 153.167,225.5 150.5,225.5 Z"/></g>
<g><path style="opacity:0.792" fill="#9dd3df" d="M 238.5,225.5 C 239.906,225.973 240.573,226.973 240.5,228.5C 239.094,228.027 238.427,227.027 238.5,225.5 Z"/></g>
<g><path style="opacity:0.067" fill="#def0f4" d="M 258.5,252.5 C 260.104,253.287 260.771,254.62 260.5,256.5C 253.313,256.825 246.313,256.491 239.5,255.5C 246.175,255.666 252.842,255.5 259.5,255C 258.748,254.329 258.414,253.496 258.5,252.5 Z"/></g>
<g><path style="opacity:0.072" fill="#ecfbfc" d="M 276.5,252.5 C 276.5,253.5 276.5,254.5 276.5,255.5C 282.167,255.5 287.833,255.5 293.5,255.5C 287.69,256.49 281.69,256.823 275.5,256.5C 275.232,254.901 275.566,253.568 276.5,252.5 Z"/></g>
<g><path style="opacity:0.07" fill="#edfbfc" d="M 489.5,252.5 C 489.5,253.5 489.5,254.5 489.5,255.5C 495.167,255.5 500.833,255.5 506.5,255.5C 500.69,256.49 494.69,256.823 488.5,256.5C 488.232,254.901 488.566,253.568 489.5,252.5 Z"/></g>
</svg>
